<svg xmlns="http://www.w3.org/2000/svg" width="256" height="256" viewBox="0 0 100 100"><rect width="100" height="100" rx="20" fill="#6a648f"></rect><path d="M22.04 43.96L22.04 43.96Q22.04 45.68 21.22 47.14Q20.40 48.60 18.48 49.40L18.48 49.40Q20.76 50.16 21.88 51.78Q23.00 53.40 23.00 55.44L23.00 55.44Q23.00 59.08 20.38 60.84Q17.76 62.60 12.92 62.60L12.92 62.60Q11.24 62.60 9.66 62.46Q8.08 62.32 6.64 61.92L6.64 61.92Q4.96 61.44 4.96 60.08L4.96 60.08L4.96 39.60Q4.96 38.44 6.28 38.08L6.28 38.08Q7.64 37.68 9.16 37.54Q10.68 37.40 12.48 37.40L12.48 37.40Q17.00 37.40 19.52 39Q22.04 40.60 22.04 43.96ZM13.60 50.84L8.16 50.84L8.16 59.48Q9.12 59.68 10.38 59.80Q11.64 59.92 12.92 59.92L12.92 59.92Q16.24 59.92 17.96 58.82Q19.68 57.72 19.68 55.36L19.68 55.36Q19.68 53.28 18.14 52.06Q16.60 50.84 13.60 50.84L13.60 50.84ZM8.16 40.44L8.16 48.20L13.60 48.20Q16.12 48.20 17.42 47.08Q18.72 45.96 18.72 44.04L18.72 44.04Q18.72 40.08 12.48 40.08L12.48 40.08Q11.08 40.08 10.06 40.18Q9.04 40.28 8.16 40.44L8.16 40.44ZM42.20 43.32L42.20 43.32Q42.88 43.32 43.30 43.68Q43.72 44.04 43.72 44.72L43.72 44.72Q43.72 45.16 43.40 46.26Q43.08 47.36 42.56 48.86Q42.04 50.36 41.38 52.16Q40.72 53.96 39.98 55.74Q39.24 57.52 38.50 59.16Q37.76 60.80 37.12 62.00L37.12 62.00Q36.92 62.16 36.42 62.28Q35.92 62.40 35.36 62.40L35.36 62.40Q33.88 62.40 33.44 61.56L33.44 61.56Q33.08 60.88 32.52 59.68Q31.96 58.48 31.32 56.96Q30.68 55.44 30.00 53.72Q29.32 52 28.68 50.30Q28.04 48.60 27.48 47.02Q26.92 45.44 26.56 44.20L26.56 44.20Q26.84 43.80 27.32 43.56Q27.80 43.32 28.28 43.32L28.28 43.32Q29.00 43.32 29.38 43.68Q29.76 44.04 30.08 44.88L30.08 44.88L32.56 52.04Q32.80 52.72 33.16 53.70Q33.52 54.68 33.90 55.70Q34.28 56.72 34.66 57.68Q35.04 58.64 35.28 59.32L35.28 59.32L35.44 59.32Q37.04 55.28 38.42 51.36Q39.80 47.44 40.84 43.64L40.84 43.64Q41.36 43.32 42.20 43.32ZM51.36 47.12L51.36 62.08Q51.16 62.16 50.76 62.26Q50.36 62.36 49.88 62.36L49.88 62.36Q48.16 62.36 48.16 60.92L48.16 60.92L48.16 47.36Q48.16 46.44 48.50 45.90Q48.84 45.36 49.64 44.84L49.64 44.84Q50.68 44.16 52.46 43.66Q54.24 43.16 56.48 43.16L56.48 43.16Q59.68 43.16 59.68 44.76L59.68 44.76Q59.68 45.16 59.56 45.50Q59.44 45.84 59.24 46.08L59.24 46.08Q58.84 46 58.20 45.92Q57.56 45.84 56.92 45.84L56.92 45.84Q55.08 45.84 53.68 46.22Q52.28 46.60 51.36 47.12L51.36 47.12ZM72.44 53.04L62.88 53.04Q62.76 52.76 62.68 52.46Q62.60 52.16 62.60 51.76L62.60 51.76Q62.60 50.40 64 50.40L64 50.40L73.56 50.40Q73.64 50.64 73.74 50.96Q73.84 51.28 73.84 51.64L73.84 51.64Q73.84 53.04 72.44 53.04L72.44 53.04ZM86.28 59.96L86.28 59.96Q88.96 59.96 90.34 58.74Q91.72 57.52 91.72 55.60L91.72 55.60Q91.72 53.92 90.66 52.88Q89.60 51.84 87.32 51.16L87.32 51.16L83.84 50.12Q81.28 49.36 79.82 47.88Q78.36 46.40 78.36 43.88L78.36 43.88Q78.36 42.36 78.94 41.14Q79.52 39.92 80.60 39.08Q81.68 38.24 83.18 37.78Q84.68 37.32 86.56 37.32L86.56 37.32Q88.16 37.32 89.54 37.58Q90.92 37.84 91.94 38.30Q92.96 38.76 93.52 39.32Q94.08 39.88 94.08 40.48L94.08 40.48Q94.08 41.04 93.80 41.44Q93.52 41.84 93.08 42.08L93.08 42.08Q92.04 41.28 90.38 40.68Q88.72 40.08 86.68 40.08L86.68 40.08Q84.32 40.08 82.98 41.08Q81.64 42.08 81.64 43.88L81.64 43.88Q81.64 45.28 82.60 46.16Q83.56 47.04 85.80 47.68L85.80 47.68L88.24 48.40Q91.40 49.32 93.22 50.98Q95.04 52.64 95.04 55.60L95.04 55.60Q95.04 58.76 92.76 60.72Q90.48 62.68 86.28 62.68L86.28 62.68Q84.44 62.68 82.94 62.36Q81.44 62.04 80.38 61.52Q79.32 61.00 78.74 60.38Q78.16 59.76 78.16 59.16L78.16 59.16Q78.16 58.48 78.58 58.02Q79 57.56 79.56 57.36L79.56 57.36Q80 57.80 80.64 58.26Q81.28 58.72 82.12 59.10Q82.96 59.48 84 59.72Q85.04 59.96 86.28 59.96Z" fill="#fff"></path></svg>